<svg xmlns="http://www.w3.org/2000/svg" viewBox="0 0 76.09 80.22"><defs><style>.a{fill:#fff;}</style></defs><path class="a" d="M64,131.46c-.82,0-1.64,0-2.39.11a.23.23,0,0,0-.21.24v9.29a.23.23,0,0,0,.21.22c.65,0,1.37,0,2.11,0,3.53,0,5.07-2.16,5.07-5.1S67.23,131.46,64,131.46Zm-.4,9.09c-.47,0-.9,0-1.22,0v-8.17c.43,0,1-.07,1.66-.07,2.58,0,3.72,1.67,3.72,4C67.74,139.08,66.42,140.55,63.58,140.55Z" transform="translate(-59.01 -61.23)"/><path class="a" d="M81.15,140.49H77.08v-3.86h3.44a.23.23,0,0,0,.22-.21l0-.39a.21.21,0,0,0-.19-.23H77.08v-3.47h3.79a.24.24,0,0,0,.23-.21l.05-.41a.21.21,0,0,0-.21-.21H76.31a.22.22,0,0,0-.21.21v9.39a.22.22,0,0,0,.21.21h4.77a.23.23,0,0,0,.22-.21l0-.4A.2.2,0,0,0,81.15,140.49Z" transform="translate(-59.01 -61.23)"/><path class="a" d="M89.38,133.77a1.67,1.67,0,0,1,1.85-1.6,4.41,4.41,0,0,1,1.83.38.18.18,0,0,0,.25-.12l.1-.42a.29.29,0,0,0-.15-.3,5.91,5.91,0,0,0-2-.35,2.61,2.61,0,0,0-2.9,2.49c0,3.21,4.39,2.26,4.39,5,0,1.11-.83,1.79-2.09,1.79a5,5,0,0,1-2.1-.47.16.16,0,0,0-.24.11l-.1.42a.26.26,0,0,0,.14.29,5.63,5.63,0,0,0,2.24.47c2,0,3.15-1.14,3.15-2.69C93.77,135.44,89.38,136.31,89.38,133.77Z" transform="translate(-59.01 -61.23)"/><path class="a" d="M102,131.5h-.55a.22.22,0,0,0-.21.21v9.39a.22.22,0,0,0,.21.21H102a.23.23,0,0,0,.22-.21v-9.39A.23.23,0,0,0,102,131.5Z" transform="translate(-59.01 -61.23)"/><path class="a" d="M116.64,136.49h-2.45a.23.23,0,0,0-.23.21l0,.4a.2.2,0,0,0,.2.21h1.77v3a4.38,4.38,0,0,1-1.73.27c-2.28,0-3.6-1.71-3.6-4.19s1.33-4.19,3.67-4.19a5.78,5.78,0,0,1,2,.34.18.18,0,0,0,.24-.13l.08-.42a.24.24,0,0,0-.15-.28,6.76,6.76,0,0,0-2.17-.35c-3.1,0-4.72,2.28-4.72,5.06,0,3.19,1.87,5,4.53,5a7.67,7.67,0,0,0,2.58-.42.3.3,0,0,0,.21-.28v-4A.22.22,0,0,0,116.64,136.49Z" transform="translate(-59.01 -61.23)"/><path class="a" d="M131,131.5h-.49a.22.22,0,0,0-.23.21v4.54l.06,3.63c-1.24-2.43-3.13-5.45-4.77-8.2a.39.39,0,0,0-.33-.18h-.65a.22.22,0,0,0-.21.21v9.39a.22.22,0,0,0,.21.21h.52a.24.24,0,0,0,.23-.21v-4.61l0-3.57c1.25,2.43,3,5.21,4.78,8.21a.4.4,0,0,0,.32.18H131a.22.22,0,0,0,.22-.21v-9.39A.22.22,0,0,0,131,131.5Z" transform="translate(-59.01 -61.23)"/><path class="a" d="M80.2,119.19c.35-.26.7-1,.48-1.31s-.54.51-1.59,1-1.71.31-3.79-1.73-2.12-8.39-2.06-10.63,1.41-8.93,1.47-10.85a6.63,6.63,0,0,0-1.18-4.08c-.61-1-1.63-1.15-2.87,0s-5.24,8.58-5.68,9.06-.56.18-.69-.08-.24-1.51-.37-1.86-.89-.93-2.2-.42A5.15,5.15,0,0,0,59,102.18c0,.11.19.32.41,0s.72-1.33,1.2-2.11c.34-.54,1.37-.89,1.2.17s-.64,13.68.83,8.1,7.92-15.86,8.49-16.4c.38-.36.76-.16,1,.7s-.48,3.76-1.6,9.51-.46,8.06.83,12.13a9.85,9.85,0,0,0,5.78,5.64A3.25,3.25,0,0,0,80.2,119.19Z" transform="translate(-59.01 -61.23)"/><path class="a" d="M89.29,111.6a7.09,7.09,0,0,0,2.87,1.82c.79.19,1.29,0,.12-.55s-3-2.49-2.9-5.87.7-4.86.27-5.58-2.4-1.24-2.68-.07-.41,3.15-.53,4.08a9.46,9.46,0,0,1-1,3.51c-.65,1-2.25,2.87-2.47,1.12a34.37,34.37,0,0,1,.29-9.5c.6-3.3,1.94-6.8,3.8-7.92s4.66,1.18,5,3.11a15.05,15.05,0,0,1-.17,3.66c-.17.65-.48,1.37-.53,1.58s0,1.13.39.36a9.46,9.46,0,0,0,.83-3.16c.14-1.49.09-3.51-.71-4.66a4.56,4.56,0,0,0-4.26-2c-2.13.38-6.49,4.24-7.23,9.26s-.41,7.78.09,8.67,2.25,2.15,3.09,1.9,2.37-2.07,3-4A17.32,17.32,0,0,0,89.29,111.6Z" transform="translate(-59.01 -61.23)"/><path class="a" d="M126.17,113.08c0-.33,0-.81-.38-.43s-.38,1-1.72,1-2.83.34-4.6-1.53a25.36,25.36,0,0,1-3.54-4.93,18.47,18.47,0,0,0-3.88-3.91,5.76,5.76,0,0,0,2.92-.87c1.3-.87,3.78-3.26,4.26-4.7s.63-2.87-1.91-3.68-6.12,4.15-7.37,6.21c-.65,1.06-2.35,4.41-2.35,4.41l.05-8.07c.44-.52,1.44-1.68,2.94-3.37,2.09-2.34,6.25-10.53,8.55-16S122.2,66.6,121,63.15s-4.61-1.5-7.06,0-5.68,8.92-7.45,16.44c-.29,1.24-.56,2.89-.8,4.7-1.79.36-4,.92-6.23,1.33.18-1.87.35-3.66.47-5.31.43-2.88.48-4.46-.28-4.46s-2-.43-2.3,1-1,6.5-1.32,9.21c-3.34.21-5.65-.6-4.31-4.23,0,0-2.24.46-1.67,2.18.82,2.49,3.11,3,5.9,2.78-.91,8.33-1.68,24.74,2.74,31.37,5.22,7.25,12.84,2.66,14-4.26,1.06-6.17-1.41,5.64-5.9,7-1.84.58-4.86.48-6.36-3.7-3.41-8.78-2.07-21-1.07-31,2.14-.47,4.32-1.09,6.23-1.47-.59,4.61-1,10.17-1.15,13.06-.77.41-1.29.69-1.57.58s-.29.48-.29.48,0,.28.91,0l.87-.26a10.86,10.86,0,0,0,0,1.15h0c0,1.12.12,3.25.44,7.11.19,2.34.09,3.68.91,3.73s1.35.33,1.78-2a36.77,36.77,0,0,1,4.2-9.75c3-4.39,5.47-5.07,5.71-3.35a4.82,4.82,0,0,1-1.4,4.64,12.32,12.32,0,0,1-5.39,3c-.69.19-.4.91,0,.86s.4-.08.51,0c.73,1,.49,2.39,1.75,4.26s6.1,5.94,9.5,5.84S126.13,113.42,126.17,113.08Zm-9.28-50.89a2.28,2.28,0,0,1,3.64,1.39,16.76,16.76,0,0,1-.39,8.71c-1.29,3.93-6.65,18.58-12.49,23.27,0,0,.63-5.34,1.49-11l.23,0c1.1.15.79.53,1,.58.64-.68-.12-1.16-1.18-1.19a88,88,0,0,1,2.26-11.3C113.68,66,114.37,63.76,116.89,62.19Z" transform="translate(-59.01 -61.23)"/><path class="a" d="M135.05,102.09c-.19-.35-.39-.11-.57,1.11-.26,1.82-1.27,5.07-3.13,6.32s-3.18,1.31-4.58,0c-1.79-1.75-1.34-5.56-1.34-5.56a3.75,3.75,0,0,0,3.55-2.34c.91-2.44.92-3.87.59-5.08s-.69-2.17-2.08-2.2S123.76,96,123,99.22s-1,8.21,1.66,10.38c2.14,1.72,3.7,1.81,5.35,1.28s3.59-3,4.16-4.76S135.24,102.45,135.05,102.09Zm-9.66-.88a22.92,22.92,0,0,1,.8-4.38c.4-1.27.61-2.08,1.66-2s1.51,1.61,1.39,3.16-.67,3.52-1.27,4.11-1.24,1.4-2.23,1.15C125.15,103.14,125.34,101.69,125.39,101.21Z" transform="translate(-59.01 -61.23)"/></svg>